# xmcd CD database file
#
# Track frame offsets:
#	150
#	12798
#	25557
#	40037
#	54529
#	67673
#	83134
#	98289
#	112102
#	126581
#	141000
#	155982
#	170853
#	184081
#	197989
#
# Disc length: 2814 seconds
#
# Revision: 2
# Processed by: cddbd v1.5.2PL0 Copyright (c) Steve Scherf et al.
# Submitted via: CDex 1.51
#
DISCID=c70afc0f
DTITLE=Jason Aldean - Rearview Town
DYEAR=2018
DGENRE=Country
TTITLE0=Jason Aldean - Dirt To Dust
TTITLE1=Jason Aldean - Set It Off
TTITLE2=Jason Aldean - Girl Like You
TTITLE3=Jason Aldean - You Make It Easy
TTITLE4=Jason Aldean - Gettin' Warmed Up
TTITLE5=Jason Aldean - Blacktop Gone
TTITLE6=Jason Aldean feat. Miranda Lambert - Drowns The Whiskey
TTITLE7=Jason Aldean - Rearview Town
TTITLE8=Jason Aldean - Love Me Or Don't
TTITLE9=Jason Aldean - Like You Were Mine
TTITLE10=Jason Aldean - Better At Being Who I Am
TTITLE11=Jason Aldean - I'll Wait For You
TTITLE12=Jason Aldean - Ride All Night
TTITLE13=Jason Aldean - Up In Smoke
TTITLE14=Jason Aldean - High Noon Neon
EXTD=YEAR: 2018
EXTT0=
EXTT1=
EXTT2=
EXTT3=
EXTT4=
EXTT5=
EXTT6=
EXTT7=
EXTT8=
EXTT9=
EXTT10=
EXTT11=
EXTT12=
EXTT13=
EXTT14=
PLAYORDER=
